<svg xmlns="http://www.w3.org/2000/svg" viewBox="0 0 256 256"><path d="M226.57,119.28l-28.86,2.53c.18,2,.29,4.1.29,6.19a70,70,0,1,1-41.28-63.83l12.49-26.8A100,100,0,0,0,127,28C72.09,28,27,73.14,27,128S72.09,228,127,228s100-45.14,100-100C227,125.09,226.83,122.18,226.57,119.28Z"/><rect x="110.75" y="87.35" width="123.71" height="30" rx="5" transform="translate(-21.81 152.03) rotate(-45)"/><rect x="96.94" y="109.22" width="61.86" height="30" rx="5" transform="translate(130.45 302.47) rotate(-135)"/></svg>