<svg xmlns="http://www.w3.org/2000/svg" viewBox="0 0 256 256"><path d="M207.8,28H48.2A10.19,10.19,0,0,0,38,38.2V217.8A10.19,10.19,0,0,0,48.2,228H207.8A10.19,10.19,0,0,0,218,217.8V38.2A10.19,10.19,0,0,0,207.8,28ZM193,195.29a7.71,7.71,0,0,1-7.71,7.71H70.71A7.71,7.71,0,0,1,63,195.29V60.71A7.71,7.71,0,0,1,70.71,53H98V64.07a7.5,7.5,0,0,0,7.5,7.5h45a7.5,7.5,0,0,0,7.5-7.5V53h27.29A7.71,7.71,0,0,1,193,60.71Z"/><rect x="98.76" y="104.74" width="25" height="66.53" rx="10" transform="translate(-26.74 249.26) rotate(-90)"/><rect x="115.5" y="50.5" width="25" height="100" rx="10" transform="translate(27.5 228.5) rotate(-90)"/><rect x="106.28" y="134.72" width="25" height="81.57" rx="10" transform="translate(-56.72 294.28) rotate(-90)"/></svg>