<svg xmlns="http://www.w3.org/2000/svg" xmlns:xlink="http://www.w3.org/1999/xlink">

  <symbol id="turbo-add" viewBox="0 0 256 256">
    <rect x="113" y="28" width="30" height="200" rx="10.2"/><rect x="113" y="28" width="30" height="200" rx="10.2" transform="translate(0 256) rotate(-90)"/>
  </symbol>

  <symbol id="turbo-check" viewBox="0 0 256 256">
    <path d="M226.57,119.28l-28.86,2.53c.18,2,.29,4.1.29,6.19a70,70,0,1,1-41.28-63.83l12.49-26.8A100,100,0,0,0,127,28C72.09,28,27,73.14,27,128S72.09,228,127,228s100-45.14,100-100C227,125.09,226.83,122.18,226.57,119.28Z"/><rect x="110.75" y="87.35" width="123.71" height="30" rx="5" transform="translate(-21.81 152.03) rotate(-45)"/><rect x="96.94" y="109.22" width="61.86" height="30" rx="5" transform="translate(130.45 302.47) rotate(-135)"/>
  </symbol>

  <symbol id="turbo-clipboard" viewBox="0 0 256 256">
    <path d="M207.8,28H48.2A10.19,10.19,0,0,0,38,38.2V217.8A10.19,10.19,0,0,0,48.2,228H207.8A10.19,10.19,0,0,0,218,217.8V38.2A10.19,10.19,0,0,0,207.8,28ZM193,195.29a7.71,7.71,0,0,1-7.71,7.71H70.71A7.71,7.71,0,0,1,63,195.29V60.71A7.71,7.71,0,0,1,70.71,53H98V64.07a7.5,7.5,0,0,0,7.5,7.5h45a7.5,7.5,0,0,0,7.5-7.5V53h27.29A7.71,7.71,0,0,1,193,60.71Z"/><rect x="98.76" y="104.74" width="25" height="66.53" rx="10" transform="translate(-26.74 249.26) rotate(-90)"/><rect x="115.5" y="50.5" width="25" height="100" rx="10" transform="translate(27.5 228.5) rotate(-90)"/><rect x="106.28" y="134.72" width="25" height="81.57" rx="10" transform="translate(-56.72 294.28) rotate(-90)"/>
  </symbol>

  <symbol id="turbo-close" viewBox="0 0 256 256">
    <path d="M196.61,31.87,128,100.48,59.39,31.87a13.23,13.23,0,0,0-18.7,0l-8.82,8.82a13.23,13.23,0,0,0,0,18.7L100.48,128,31.87,196.61a13.23,13.23,0,0,0,0,18.7l8.82,8.82a13.23,13.23,0,0,0,18.7,0L128,155.52l68.61,68.61a13.23,13.23,0,0,0,18.7,0l8.82-8.82a13.23,13.23,0,0,0,0-18.7L155.52,128l68.61-68.61a13.23,13.23,0,0,0,0-18.7l-8.82-8.82A13.23,13.23,0,0,0,196.61,31.87Z"/>
  </symbol>

  <symbol id="turbo-hamburger" viewBox="0 0 256 256">
    <rect x="108" y="28" width="40" height="200" rx="10.2" transform="translate(0 256) rotate(-90)" /><rect x="108" y="-32" width="40" height="200" rx="10.2" transform="translate(60 196) rotate(-90)" /><rect x="108" y="88" width="40" height="200" rx="10.2" transform="translate(-60 316) rotate(-90)" />
  </symbol>

  <symbol id="turbo-important" viewBox="0 0 256 256">
    <rect x="68" y="68" width="120" height="40" rx="10.2" transform="translate(40 216) rotate(-90)" style="stroke:#000;stroke-miterlimit:10"/><rect x="108" y="188" width="40" height="40" rx="10.2" transform="translate(-80 336) rotate(-90)" style="stroke:#000;stroke-miterlimit:10"/>
  </symbol>

  <symbol id="turbo-kebab" viewBox="0 0 256 256">
    <rect x="108" y="108" width="40" height="40" rx="10.2" transform="translate(0 256) rotate(-90)" style="stroke:#000;stroke-miterlimit:10"/><rect x="108" y="28" width="40" height="40" rx="10.2" transform="translate(80 176) rotate(-90)" style="stroke:#000;stroke-miterlimit:10"/><rect x="108" y="188" width="40" height="40" rx="10.2" transform="translate(-80 336) rotate(-90)" style="stroke:#000;stroke-miterlimit:10"/>
  </symbol>

  <symbol id="turbo-redirect" viewBox="0 0 256 256">
    <path d="M225.25,28.07l-74.81,20a2.19,2.19,0,0,0-1,3.67L161,63.34,90.48,133.86a4.5,4.5,0,0,0,0,6.37l25.29,25.29a4.5,4.5,0,0,0,6.37,0L192.67,95l11.55,11.55a2.19,2.19,0,0,0,3.67-1l20.05-74.8A2.2,2.2,0,0,0,225.25,28.07Z"/><path d="M178,138v58a2,2,0,0,1-2,2H60a2,2,0,0,1-2-2V80a2,2,0,0,1,2-2h58V48H38A10,10,0,0,0,28,58V218a10,10,0,0,0,10,10H198a10,10,0,0,0,10-10V138Z"/>
  </symbol>

  <symbol id="turbo-refresh" viewBox="0 0 256 256">
    <path d="M224.74,138.8l5.36-89.28L206,65.44A100.1,100.1,0,0,0,128,28C73.14,28,28,73.14,28,128S73.14,228,128,228a100.1,100.1,0,0,0,86.56-49.93l-26-15a70,70,0,1,1-7.79-81L155.46,98.8Z"/>
  </symbol>

  <symbol id="turbo-roster" viewBox="0 0 256 256">
    <path d="M207.8,28H48.2A10.19,10.19,0,0,0,38,38.2V217.8A10.19,10.19,0,0,0,48.2,228H207.8A10.19,10.19,0,0,0,218,217.8V38.2A10.19,10.19,0,0,0,207.8,28ZM193,195.29a7.71,7.71,0,0,1-7.71,7.71H70.71A7.71,7.71,0,0,1,63,195.29V60.71A7.71,7.71,0,0,1,70.71,53H98V64.07a7.5,7.5,0,0,0,7.5,7.5h45a7.5,7.5,0,0,0,7.5-7.5V53h27.29A7.71,7.71,0,0,1,193,60.71Z"/><path d="M147.86,140.48a30,30,0,1,0-39.72,0C93.25,148.63,83,165.65,83,185.35h90C173,165.65,162.75,148.63,147.86,140.48Z"/>
  </symbol>

  <symbol id="turbo-send" viewBox="0 0 256 256">
    <polygon points="72.16 116.31 228 128 28 28 72.16 116.31"/><polygon points="72.16 139.69 28 228 28 228 228 128 72.16 139.69"/>
  </symbol>

  <symbol id="turbo-plant" viewBox="0 0 256 256">
    <path d="M187.75,154.62c-.28-3-.88-9.52-5.31-14.56a18.7,18.7,0,0,0-12.83-6H166.2a26.44,26.44,0,0,0,2.25-4.15c3.16-7.35,1.32-12.46,1.81-19.89,1-14.66,9.77-21,7.68-23.06-1.56-1.53-8.66.57-16,5.8-.26-1.37-.51-2.7-.73-4-6-35,6.6-57.94,1.35-59.67C157,27.25,144,53.22,140,61.18c-1.6,3.17-3.22,6.44-4.8,9.85a87.87,87.87,0,0,0-7.85-10.76c-15.41-18-38.86-30.46-42.95-26.22-5,5.16,21.95,31.41,27.34,55.86a59,59,0,0,0-4.83-4.56c-10.56-9-26.2-14.6-29.27-10.72-3.83,4.86,17,18.17,14.33,37.06-.78,5.49-3.66,12.31-.31,19.9A20.05,20.05,0,0,0,92.94,134H86.39a18.7,18.7,0,0,0-12.83,6c-4.43,5-5,11.57-5.31,14.56C66.56,173,83.1,209.59,101.49,229h53C172.9,209.59,189.44,173,187.75,154.62Z" style="fill:none;stroke-miterlimit:10;stroke-width:12px"/><line x1="83" y1="136.1" x2="173" y2="136.1" style="fill:none;stroke-miterlimit:10;stroke-width:8px"/>
  </symbol>

  <symbol id="window-close" viewBox="0 0 256 256">
    <line x2="256" y2="256" style="stroke-miterlimit:10;stroke-width:25px"/><line y1="256" x2="256" style="stroke-miterlimit:10;stroke-width:25px"/>
  </symbol>

  <symbol id="window-maximize" viewBox="0 0 256 256">
    <path d="M231,25V231H25V25H231M256,0H0V256H256V0Z"/>
  </symbol>

  <symbol id="window-minimize" viewBox="0 0 256 256">
    <line y1="132.04" x2="256" y2="132.04" style="stroke-miterlimit:10;stroke-width:25px"/>
  </symbol>

  <symbol id="window-restore" viewBox="0 0 256 256">
    <path d="M180,76V231H25V76H180m25-25H0V256H205V51Z"/><path d="M231,25V180H76V25H231M256,0H51V205H256V0Z"/>
  </symbol>

</svg>