<svg xmlns="http://www.w3.org/2000/svg" viewBox="0 0 256 256"><path d="M207.8,28H48.2A10.19,10.19,0,0,0,38,38.2V217.8A10.19,10.19,0,0,0,48.2,228H207.8A10.19,10.19,0,0,0,218,217.8V38.2A10.19,10.19,0,0,0,207.8,28ZM193,195.29a7.71,7.71,0,0,1-7.71,7.71H70.71A7.71,7.71,0,0,1,63,195.29V60.71A7.71,7.71,0,0,1,70.71,53H98V64.07a7.5,7.5,0,0,0,7.5,7.5h45a7.5,7.5,0,0,0,7.5-7.5V53h27.29A7.71,7.71,0,0,1,193,60.71Z"/><path d="M147.86,140.48a30,30,0,1,0-39.72,0C93.25,148.63,83,165.65,83,185.35h90C173,165.65,162.75,148.63,147.86,140.48Z"/></svg>